<svg xmlns="http://www.w3.org/2000/svg" width="560" height="560" viewBox="0 0 560 560">
  <g fill="none" stroke="#2f3338" stroke-width="10" stroke-linecap="round" stroke-linejoin="round" opacity="0.95">
    <!-- Couronne / tête -->
    <path d="M280 86c-18 28-22 58-12 88 9 25 26 45 50 60-40 10-74 4-100-14-32-22-50-58-50-104 0-14 2-28 6-42 16 12 30 22 42 30 13 9 25 15 36 18 5-14 13-26 24-36 11 10 19 22 24 36 11-3 23-9 36-18 12-8 26-18 44-30 3 14 6 28 6 42 0 46-18 82-50 104-26 18-60 24-100 14 24-15 41-35 50-60 10-30 6-60-12-88z"/>
    <!-- Ailes extérieures (premium, légèrement relevées) -->
    <path d="M112 212c26-14 56-22 90-24-18 14-30 30-36 48 40-18 78-24 112-16-32 10-56 24-72 42 34-6 70 0 108 18-36 0-66 8-90 24-22 14-36 34-44 60-10-46-34-82-68-106-24-17-50-32-80-46z"/>
    <path d="M448 212c-26-14-56-22-90-24 18 14 30 30 36 48-40-18-78-24-112-16 32 10 56 24 72 42-34-6-70 0-108 18 36 0 66 8 90 24 22 14 36 34 44 60 10-46 34-82 68-106 24-17 50-32 80-46z"/>

    <!-- Ailes intérieures (plumes stylisées) -->
    <path d="M156 302c26-18 56-26 90-24-22 18-34 38-36 60"/>
    <path d="M404 302c-26-18-56-26-90-24 22 18 34 38 36 60"/>

    <!-- Corps / blason -->
    <path d="M206 334c18 24 42 38 74 42 32-4 56-18 74-42 10 36 0 68-30 96-14 13-28 22-44 28-16-6-30-15-44-28-30-28-40-60-30-96z"/>

    <!-- Queue / pointe -->
    <path d="M280 430v84"/>
    <path d="M250 484l30 30 30-30"/>

    <!-- Traits décoratifs (donne le côté “logo premium”) -->
    <path d="M238 246c10 10 24 16 42 18 18-2 32-8 42-18"/>
    <path d="M230 404c16 14 32 22 50 26 18-4 34-12 50-26"/>
  </g>
</svg>
